<svg width="800" height="800" viewBox="0 0 800 800" fill="none" xmlns="http://www.w3.org/2000/svg">
<path d="M400 800C620.914 800 800 620.914 800 400C800 179.086 620.914 0 400 0C179.086 0 0 179.086 0 400C0 620.914 179.086 800 400 800Z" fill="#1C8ADB"/>
<path opacity="0.42" d="M401.64 177.65C365.354 177.65 335.845 187.619 313.117 207.556L9.547 510.976C33.238 620.666 90.34 694.926 176.887 737.956L418.397 496.446C418.397 467.402 425.087 444.865 438.456 428.823L472.827 394.466C505.126 360.572 521.274 326.181 521.274 291.286C521.274 255.997 510.709 228.282 489.575 208.145C468.641 187.809 439.331 177.641 401.649 177.641L401.64 177.65ZM393.267 559.55C382.501 559.55 374.326 562.641 368.744 568.821L191.634 745.932L252.873 778.599L417.783 613.688C423.365 607.707 426.156 600.23 426.156 591.258C426.156 582.286 423.365 574.811 417.783 568.829C412.2 562.648 404.026 559.557 393.26 559.557L393.267 559.55Z" fill="url(#paint0_linear_105:2)"/>
<path d="M363.07 496.45C363.469 472.724 366.16 453.983 371.145 440.226C376.129 426.469 386.297 411.217 401.649 394.469L440.826 354.095C457.573 335.154 465.947 314.818 465.947 293.086C465.947 272.151 460.464 255.803 449.499 244.04C438.533 232.077 422.583 226.096 401.649 226.096C381.313 226.096 364.964 231.479 352.603 242.245C340.241 253.011 334.061 267.466 334.061 285.609H278.734C279.132 253.31 290.596 227.292 313.126 207.553C335.854 187.616 365.362 177.647 401.649 177.647C439.331 177.647 468.639 187.815 489.574 208.151C510.708 228.288 521.275 256.001 521.275 291.291C521.275 326.182 505.125 360.575 472.827 394.471L440.229 426.77C425.674 442.919 418.397 466.147 418.397 496.452H363.07L363.07 496.45ZM360.677 591.253C360.677 582.281 363.369 574.804 368.752 568.823C374.335 562.642 382.509 559.552 393.275 559.552C404.041 559.552 412.216 562.642 417.798 568.823C423.381 574.804 426.172 582.281 426.172 591.253C426.172 600.225 423.381 607.702 417.798 613.683C412.216 619.465 404.041 622.356 393.275 622.356C382.509 622.356 374.335 619.465 368.752 613.683C363.369 607.702 360.677 600.225 360.677 591.253Z" fill="white"/>
<defs>
<linearGradient id="paint0_linear_105:2" x1="388.98" y1="331.84" x2="119.84" y2="600.98" gradientUnits="userSpaceOnUse">
<stop/>
<stop offset="1" stop-opacity="0"/>
</linearGradient>
</defs>
</svg>
